# xmcd
# Track frame offsets:
# 150
# 13367
# 28167
# 47310
# 63297
# 75532
# 89282
# 101800
# 114500
# 129447
# 143655
# 153295
# 166885
# 179582
# 192247
# 209915
#
# Disc length: 2980 seconds
# Revision: 0
# Processed by: cddbd v1.4PL0 Copyright (c) Steve Scherf et al.
# Submitted via: VisiTrax 2.9.5.180 - For more info visit www.synapsa.com
#
DISCID=d90ba210
DTITLE=Hugo Duncan - My world's come down
DYEAR=1994
DGENRE=Irsk
TTITLE0=Mary
TTITLE1=Cry cry again
TTITLE2=The old rustic mill
TTITLE3=Sonny's dream
TTITLE4=She's as close
TTITLE5=Mr. Maguire
TTITLE6=Spread a little sunshine
TTITLE7=Flower of sweet strabane
TTITLE8=The banks of Ohio
TTITLE9=Three good reasons
TTITLE10=My world's come down
TTITLE11=Who can I count on
TTITLE12=Burning bridges
TTITLE13=Glen A Mcicadee
TTITLE14=Hard to be humble
TTITLE15=Say goodbye
EXTD=
EXTT0=
EXTT1=
EXTT2=
EXTT3=
EXTT4=
EXTT5=
EXTT6=
EXTT7=
EXTT8=
EXTT9=
EXTT10=
EXTT11=
EXTT12=
EXTT13=
EXTT14=
EXTT15=
PLAYORDER=
